<svg xmlns="http://www.w3.org/2000/svg" width="1024" height="1024" viewBox="0 0 1024 1024">
  <rect width="1024" height="1024" fill="#fffdf9"/>
  <path d="M0 0h1024v420c-150 58-321 74-512 48C315 442 144 405 0 344Z" fill="#173b73"/>
  <path d="M0 288c154 29 306 31 462 5" fill="none" stroke="#e7762b" stroke-width="24" stroke-linecap="round"/>
  <path d="M0 336c137 29 274 35 414 18" fill="none" stroke="#f0a13a" stroke-width="15" stroke-linecap="round"/>
  <g fill="#fff">
    <circle cx="477" cy="105" r="42"/>
    <path d="M444 157c25-17 59-13 79 9l51 57 82 13c18 3 30 20 27 38-3 18-20 30-38 27l-105-17-42-42-44 66 64 38c15 9 20 29 11 44-9 15-29 20-44 11l-99-59c-22-13-30-41-18-64l42-80-56 37-42 65c-10 15-30 19-45 9-15-10-19-30-9-45l49-76c5-8 12-14 20-19l117-80Z"/>
    <path d="M523 362l88 76c14 12 15 33 3 47-12 14-33 15-47 3l-91-78c-22-19-26-51-10-75l18-27Z"/>
  </g>
  <g transform="translate(745 175)">
    <rect x="0" y="0" width="174" height="205" rx="25" fill="#fff"/>
    <rect x="33" y="35" width="108" height="15" rx="8" fill="#173b73"/>
    <path d="M35 88h35l14 14 28-35" fill="none" stroke="#e7762b" stroke-width="16" stroke-linecap="round" stroke-linejoin="round"/>
    <path d="M35 143h35l14 14 28-35" fill="none" stroke="#173b73" stroke-width="16" stroke-linecap="round" stroke-linejoin="round"/>
    <circle cx="145" cy="155" r="25" fill="#e7762b"/>
    <path d="M145 140v30M130 155h30" stroke="#fff" stroke-width="10" stroke-linecap="round"/>
  </g>
  <text x="512" y="555" text-anchor="middle" font-family="Noto Sans CJK JP, Hiragino Sans, sans-serif" font-size="46" font-weight="700" fill="#173b73">学びスプリント</text>
  <text x="512" y="665" text-anchor="middle" font-family="Noto Sans CJK JP, Hiragino Sans, sans-serif" font-size="92" font-weight="900" fill="#173b73">第一種</text>
  <text x="512" y="782" text-anchor="middle" font-family="Noto Sans CJK JP, Hiragino Sans, sans-serif" font-size="105" font-weight="900" fill="#173b73">衛生管理者</text>
  <text x="512" y="858" text-anchor="middle" font-family="Noto Sans CJK JP, Hiragino Sans, sans-serif" font-size="38" font-weight="700" fill="#58667a">労働・衛生</text>
  <rect x="335" y="902" width="354" height="22" rx="11" fill="#e7762b"/>
</svg>
