<svg xmlns="http://www.w3.org/2000/svg" viewBox="0 0 900 620" role="img" aria-labelledby="t d" data-original-redraw="K114-AM107">
<title id="t">K114-AM107 独自再作図</title><desc id="d">公式設問の学習上必要な情報だけを独自の線画で再構成した図版</desc>
<rect width="900" height="620" fill="white"/><text x="450" y="42" text-anchor="middle" font-family="system-ui,-apple-system,'Noto Sans JP',sans-serif" font-size="26" font-weight="700" fill="#243447">小児ベッド周辺の状況（独自模式図）</text><rect x="170" y="190" width="470" height="270" rx="6" fill="#fafafa" stroke="#243447" stroke-width="5"/><line x1="190" y1="195" x2="190" y2="455" stroke="#708090" stroke-width="4" stroke-linecap="round"/><line x1="235" y1="195" x2="235" y2="455" stroke="#708090" stroke-width="4" stroke-linecap="round"/><line x1="280" y1="195" x2="280" y2="455" stroke="#708090" stroke-width="4" stroke-linecap="round"/><line x1="325" y1="195" x2="325" y2="455" stroke="#708090" stroke-width="4" stroke-linecap="round"/><line x1="370" y1="195" x2="370" y2="455" stroke="#708090" stroke-width="4" stroke-linecap="round"/><line x1="415" y1="195" x2="415" y2="455" stroke="#708090" stroke-width="4" stroke-linecap="round"/><line x1="460" y1="195" x2="460" y2="455" stroke="#708090" stroke-width="4" stroke-linecap="round"/><line x1="505" y1="195" x2="505" y2="455" stroke="#708090" stroke-width="4" stroke-linecap="round"/><line x1="550" y1="195" x2="550" y2="455" stroke="#708090" stroke-width="4" stroke-linecap="round"/><line x1="595" y1="195" x2="595" y2="455" stroke="#708090" stroke-width="4" stroke-linecap="round"/><circle cx="430" cy="276.0" r="11.52" fill="white" stroke="#243447" stroke-width="2"/><line x1="430" y1="288.24" x2="430" y2="344.4" stroke="#243447" stroke-width="6" stroke-linecap="round"/><line x1="430" y1="304.8" x2="399.76" y2="330" stroke="#243447" stroke-width="5" stroke-linecap="round"/><line x1="430" y1="304.8" x2="460.24" y2="330" stroke="#243447" stroke-width="5" stroke-linecap="round"/><line x1="430" y1="344.4" x2="408.4" y2="384.0" stroke="#243447" stroke-width="5" stroke-linecap="round"/><line x1="430" y1="344.4" x2="451.6" y2="384.0" stroke="#243447" stroke-width="5" stroke-linecap="round"/><circle cx="300" cy="385" r="46" fill="#f5efe6" stroke="#315f86" stroke-width="3"/><text x="300" y="393" text-anchor="middle" font-family="system-ui,-apple-system,'Noto Sans JP',sans-serif" font-size="14" font-weight="500" fill="#315f86">ぬいぐるみ</text><line x1="650" y1="170" x2="650" y2="470" stroke="#708090" stroke-width="6" stroke-linecap="round"/><circle cx="650" cy="480" r="8" fill="#708090" stroke="#708090" stroke-width="1"/><rect x="625" y="120" width="50" height="55" rx="4" fill="#eef2f5" stroke="#315f86" stroke-width="2"/><path d="M650 170 C620 250 560 235 500 300" stroke="#315f86" stroke-width="4" fill="none" stroke-linecap="round" stroke-linejoin="round"/><text x="735" y="235" text-anchor="middle" font-family="system-ui,-apple-system,'Noto Sans JP',sans-serif" font-size="17" font-weight="500" fill="#315f86">点滴ルート</text><text x="450" y="555" text-anchor="middle" font-family="system-ui,-apple-system,'Noto Sans JP',sans-serif" font-size="18" font-weight="500" fill="#708090">児は柵越しに手を伸ばしている</text></svg>
